<svg xmlns="http://www.w3.org/2000/svg" viewBox="0 0 419.2 371.2"><defs><style>.cls-1{fill:#31da80;}</style></defs><g id="Calque_2" data-name="Calque 2"><g id="Capa_1" data-name="Capa 1"><circle class="cls-1" cx="158" cy="120.4" r="28.8"/><path class="cls-1" d="M394.4,226.4a88.69,88.69,0,0,0-49.6-23.6V56.4a57.59,57.59,0,0,0-16.4-40A55.89,55.89,0,0,0,288.4,0H56.4a57.59,57.59,0,0,0-40,16.4A55.89,55.89,0,0,0,0,56.4V295.2a57.59,57.59,0,0,0,16.4,40,55.89,55.89,0,0,0,40,16.4H280.8c14.8,12,33.2,19.6,53.6,19.6a84.85,84.85,0,0,0,60-144.8ZM21.2,56.4A33.48,33.48,0,0,1,31.6,32,35.1,35.1,0,0,1,56.4,21.6h232a35.51,35.51,0,0,1,35.2,35.2V181.6l-59.2-59.2a10.74,10.74,0,0,0-15.2,0L160,212,99.6,151.2a10.74,10.74,0,0,0-15.2,0l-63.2,64ZM56,331.2v-.8A35.1,35.1,0,0,1,31.2,320a36.51,36.51,0,0,1-10-24.8V245.6L92,174.4l60.4,60.4c4,4,10.8,4,15.2,0l89.2-89.6L315.2,204l-3.6,1.2a37.15,37.15,0,0,0-5.2,1.6c-1.6.4-3.2,1.2-4.8,1.6a12,12,0,0,0-3.2,1.6,37.17,37.17,0,0,0-4,2l-6,3.6c-1.2.8-2,1.2-3.2,2-.8.4-1.2.8-2,1.2a48.26,48.26,0,0,0-9.6,8.4,84.62,84.62,0,0,0-24.8,60,87.94,87.94,0,0,0,2,17.6c.4,1.6.8,2.8,1.2,4.4,1.2,4,2.4,8,4,12v.4a73.37,73.37,0,0,0,5.2,9.6Zm322.8,0a63.28,63.28,0,0,1-88.4.8c-1.6-1.6-3.2-3.6-4.8-5.2-1.2-1.2-2.4-2.8-3.6-4a38,38,0,0,1-4-6.8c-.8-1.6-1.6-2.8-2.4-4.4a33.79,33.79,0,0,1-2-6.8c-.4-1.6-1.2-3.6-1.6-5.2a66.2,66.2,0,0,1-1.2-12.8A64.2,64.2,0,0,1,289.2,242c11.2-11.6,27.2-18.4,44.8-18.4A64.2,64.2,0,0,1,378.8,242a62.52,62.52,0,0,1,18.4,44.8A64,64,0,0,1,378.8,331.2Z"/><path class="cls-1" d="M341.6,243.6a14,14,0,0,0-3.6-2.4,11.68,11.68,0,0,0-3.6-.8h-.8a11.68,11.68,0,0,0-3.6.8,9.45,9.45,0,0,0-3.6,2.4l-24.8,24.8c-4,4-4,10.8,0,15.2,4,4,10.8,4,15.2,0l6.4-6.4v44a10.8,10.8,0,1,0,21.6,0v-44l6.4,6.4c4,4,10.8,4,15.2,0,4-4,4-10.8,0-15.2Z"/></g></g></svg>